#!OML:ASF F:\twosubjects\two\wednesday\Session 1\rory1.ASF
:FULLY-SPECIFIED
:DEGREES
199
root 17.5108 18.2546 -9.11346 -173.548 -2.95811 174.612
lowerback 0.636977 -1.13473 -6.22882
upperback 0.00428637 -1.56607 0.43556
thorax -0.174336 -0.781561 3.95207
lowerneck -14.4483 -1.15181 -3.06577
upperneck 14.1645 -0.405274 -1.96201
head 6.70846 -0.469381 -0.164592
rclavicle -8.89561e-015 1.07344e-014
rhumerus -41.7308 -21.6627 -70.0561
rradius 21.8247
rwrist 15.3068
rhand -12.2208 33.4948
rfingers 7.12502
rthumb 13.8442 3.97559
lclavicle -8.89561e-015 1.07344e-014
lhumerus -28.8712 -2.90534 89.7613
lradius 40.8326
lwrist 8.64077
lhand -20.5126 27.8413
lfingers 7.12502
lthumb 5.84488 57.7407
rfemur -29.1088 12.0053 11.6517
rtibia 25.5887
rfoot -4.68411 -11.7159
rtoes 2.89031
lfemur 7.80118 -4.19312 -27.8897
ltibia 24.4845
lfoot 0.799021 -6.51818
ltoes -14.4773
200
root 17.526 18.2516 -9.29569 -173.417 -2.84034 174.873
lowerback 0.290211 -1.04203 -5.80948
upperback -0.0401421 -1.41687 0.405182
thorax -0.0533719 -0.709297 3.67789
lowerneck -13.961 -0.960863 -2.81704
upperneck 13.6919 -0.530735 -2.10412
head 6.47014 -0.646226 -0.27283
rclavicle -2.73329e-015 7.95139e-016
rhumerus -41.7345 -22.5927 -69.5605
rradius 21.3932
rwrist 16.0304
rhand -12.3268 33.9418
rfingers 7.12502
rthumb 13.742 4.41559
lclavicle -2.73329e-015 7.95139e-016
lhumerus -29.5997 -2.49085 89.6526
lradius 40.5547
lwrist 8.6126
lhand -20.974 27.7446
lfingers 7.12502
lthumb 5.39942 57.6558
rfemur -28.9186 11.8746 12.1969
rtibia 26.0718
rfoot -4.70196 -10.9943
rtoes 5.0749
lfemur 6.55669 -3.51399 -27.3356
ltibia 26.9239
lfoot 2.82026 -6.38143
ltoes -14.0409
201
root 17.542 18.2556 -9.48012 -173.533 -2.75122 174.976
lowerback 0.371099 -0.987477 -5.74354
upperback -0.0194639 -1.3469 0.485547
thorax -0.0844252 -0.673294 3.72545
lowerneck -14.0356 -1.03728 -2.77978
upperneck 13.6278 -0.608806 -2.31307
head 6.46224 -0.699529 -0.35359
rclavicle -1.97294e-014 1.31198e-014
rhumerus -41.3692 -22.4747 -69.594
rradius 21.0262
rwrist 15.7214
rhand -13.0119 32.5837
rfingers 7.12502
rthumb 13.0817 3.01395
lclavicle -1.97294e-014 1.31198e-014
lhumerus -30.1822 -1.50989 89.5889
lradius 40.2668
lwrist 8.20934
lhand -21.9975 27.4842
lfingers 7.12502
lthumb 4.41121 57.4183
rfemur -28.4376 11.6201 12.6672
rtibia 26.6332
rfoot -4.49478 -10.4871
rtoes 6.15636
lfemur 5.59192 -2.9973 -26.9438
ltibia 29.3585
lfoot 5.1222 -6.10691
ltoes -12.6864
202
root 17.5603 18.2611 -9.66355 -173.776 -2.79078 174.939
lowerback 0.558239 -1.0194 -5.87667
upperback 0.0877063 -1.39899 0.549804
thorax -0.0685983 -0.702243 3.8693
lowerneck -14.5093 -1.18644 -2.78357
upperneck 13.9495 -0.436437 -2.43835
head 6.64835 -0.507581 -0.366535
rclavicle 4.82053e-015 7.15625e-015
rhumerus -41.1514 -22.4952 -69.5283
rradius 21.032
rwrist 15.5325
rhand -13.025 31.5471
rfingers 7.12502
rthumb 13.0691 1.97654
lclavicle 4.82053e-015 7.15625e-015
lhumerus -30.6798 -0.380661 89.4939
lradius 39.8651
lwrist 8.04573
lhand -24.7456 24.3182
lfingers 7.12502
lthumb 1.75727 54.2907
rfemur -27.7725 11.4614 12.9572
rtibia 27.1603
rfoot -5.44732 -10.2617
rtoes 6.53103
lfemur 4.65702 -2.72179 -26.6957
ltibia 31.837
lfoot 7.79894 -5.58949
ltoes -10.2457
203
root 17.582 18.2686 -9.84194 -173.882 -2.88652 174.889
lowerback 0.590675 -1.03018 -5.97019
upperback 0.142836 -1.4156 0.515773
thorax -0.0267564 -0.713556 3.88666
lowerneck -14.6261 -0.974492 -2.86762
upperneck 14.0594 -0.477653 -2.27738
head 6.70233 -0.650205 -0.321459
rclavicle 4.37326e-015 6.75868e-015
rhumerus -41.193 -23.2006 -69.2214
rradius 21.1484
rwrist 15.8798
rhand -12.7705 30.5035
rfingers 7.12502
rthumb 13.3144 0.948804
lclavicle 4.37326e-015 6.75868e-015
lhumerus -31.3079 0.248997 89.3739
lradius 39.5093
lwrist 8.46744
lhand -26.5606 21.8198
lfingers 7.12502
lthumb 0.00432781 51.7996
rfemur -27.2423 11.4051 13.1701
rtibia 27.637
rfoot -5.70485 -10.2031
rtoes 6.92424
lfemur 3.33895 -2.60133 -26.5044
ltibia 34.3544
lfoot 10.8002 -5.09168
ltoes -8.31973
204
root 17.6005 18.2735 -10.017 -173.936 -3.03002 175.085
lowerback 0.621588 -1.03226 -5.79446
upperback 0.154074 -1.41772 0.567124
thorax -0.0352111 -0.714102 3.84145
lowerneck -14.768 -1.05397 -2.97949
upperneck 14.1871 -0.574719 -2.13613
head 6.76878 -0.692952 -0.268968
rclavicle -3.8266e-015 -1.35174e-014
rhumerus -40.9962 -23.5687 -69.0815
rradius 21.0994
rwrist 15.787
rhand -12.6481 29.5747
rfingers 7.12502
rthumb 13.4324 0.0277907
lclavicle -3.8266e-015 -1.35174e-014
lhumerus -31.9599 0.69491 89.2207
lradius 39.1519
lwrist 8.7617
lhand -26.4064 22.487
lfingers 7.12502
lthumb 0.153202 52.4667
rfemur -26.7449 11.0709 13.6945
rtibia 28.0282
rfoot -5.89667 -9.87006
rtoes 8.07629
lfemur 1.86241 -2.59259 -26.1275
ltibia 36.9651
lfoot 13.5589 -5.22817
ltoes -9.11517
205
root 17.6152 18.2639 -10.1866 -174.019 -3.25436 175.522
lowerback 0.618931 -1.07192 -5.25255
upperback 0.177408 -1.46445 0.627052
thorax -0.0166054 -0.737484 3.59822
lowerneck -14.934 -1.08089 -3.05374
upperneck 14.4816 -0.617364 -1.93551
head 6.89322 -0.706445 -0.199074
rclavicle -2.3556e-014 6.36111e-015
rhumerus -40.776 -23.7243 -69.0924
rradius 20.9476
rwrist 15.7037
rhand -12.3185 30.6339
rfingers 7.12502
rthumb 13.75 1.10827
lclavicle -2.3556e-014 6.36111e-015
lhumerus -32.5944 1.26802 88.9552
lradius 38.6911
lwrist 8.36674
lhand -26.1772 23.0884
lfingers 7.12502
lthumb 0.37456 53.0678
rfemur -26.1498 10.5097 14.514
rtibia 28.2504
rfoot -6.32438 -9.20288
rtoes 9.28839
lfemur 0.509263 -2.74844 -25.465
ltibia 39.6814
lfoot 15.5757 -4.76897
ltoes -6.17098
